<svg xmlns="http://www.w3.org/2000/svg" xmlns:xlink="http://www.w3.org/1999/xlink" width="100" zoomAndPan="magnify" viewBox="0 0 1500 1499.999933" height="100" preserveAspectRatio="xMidYMid meet" version="1.0"><defs><g/><clipPath id="7289f22451"><rect x="0" width="1500" y="0" height="480"/></clipPath></defs><g transform="matrix(1, 0, 0, 1, 0, 510)"><g clip-path="url(#7289f22451)"><g fill="#000000" fill-opacity="1"><g transform="translate(0.00003335, 378.315044)"><g><path d="M 166.828125 -238.328125 L 224.03125 -238.328125 L 224.03125 0 L 66 -116.234375 L 66 0 L 8.796875 0 L 8.796875 -238.328125 L 166.828125 -116.59375 Z M 166.828125 -238.328125 "/></g></g></g><g fill="#000000" fill-opacity="1"><g transform="translate(232.827796, 378.315044)"><g><path d="M 97.890625 -188.828125 C 124.046875 -189.066406 146.289062 -180.023438 164.625 -161.703125 C 183.207031 -143.117188 192.5 -120.875 192.5 -94.96875 C 192.738281 -68.8125 183.691406 -46.566406 165.359375 -28.234375 C 147.023438 -9.648438 124.90625 -0.238281 99 0 C 72.84375 0.238281 50.476562 -8.800781 31.90625 -27.125 C 13.320312 -45.457031 4.03125 -67.703125 4.03125 -93.859375 C 3.789062 -120.015625 12.835938 -142.257812 31.171875 -160.59375 C 49.503906 -179.175781 71.742188 -188.585938 97.890625 -188.828125 Z M 131.265625 -61.59375 C 140.304688 -70.644531 144.828125 -81.644531 144.828125 -94.59375 C 144.828125 -107.300781 140.179688 -118.300781 130.890625 -127.59375 C 121.609375 -136.394531 110.609375 -140.796875 97.890625 -140.796875 C 85.179688 -140.796875 74.304688 -136.273438 65.265625 -127.234375 C 56.222656 -117.703125 51.703125 -106.703125 51.703125 -94.234375 C 51.703125 -81.523438 56.34375 -70.523438 65.625 -61.234375 C 74.675781 -52.191406 85.675781 -47.671875 98.625 -47.671875 C 111.832031 -48.160156 122.710938 -52.800781 131.265625 -61.59375 Z M 131.265625 -61.59375 "/></g></g></g><g fill="#000000" fill-opacity="1"><g transform="translate(401.490428, 378.315044)"><g><path d="M 193.96875 0 L 176.734375 -33.359375 L 86.890625 -33.359375 L 69.671875 0 L 3.671875 0 L 132 -238.328125 L 259.953125 0 Z M 153.625 -78.09375 L 132 -119.890625 L 110 -78.09375 Z M 153.625 -78.09375 "/></g></g></g><g fill="#000000" fill-opacity="1"><g transform="translate(635.784792, 378.315044)"><g><path d="M 158.765625 0 L 158.765625 -21.625 C 141.160156 -7.207031 121.238281 0 99 0 C 73.082031 0.238281 50.835938 -8.800781 32.265625 -27.125 C 13.691406 -45.457031 4.28125 -67.703125 4.03125 -93.859375 C 3.789062 -119.773438 12.835938 -142.019531 31.171875 -160.59375 C 49.503906 -179.175781 71.742188 -188.585938 97.890625 -188.828125 C 120.628906 -188.828125 140.796875 -181.613281 158.390625 -167.1875 L 158.390625 -255.921875 L 209.734375 -255.921875 L 210.09375 0 Z M 131.625 -61.59375 C 140.675781 -70.644531 145.203125 -81.644531 145.203125 -94.59375 C 144.710938 -107.789062 140.066406 -118.789062 131.265625 -127.59375 C 121.972656 -136.394531 110.972656 -140.796875 98.265625 -140.796875 C 85.304688 -140.796875 74.304688 -136.273438 65.265625 -127.234375 C 56.222656 -117.210938 51.820312 -106.210938 52.0625 -94.234375 C 52.0625 -81.273438 56.582031 -70.273438 65.625 -61.234375 C 74.675781 -52.191406 85.675781 -47.671875 98.625 -47.671875 C 111.832031 -48.160156 122.832031 -52.800781 131.625 -61.59375 Z M 131.625 -61.59375 "/></g></g></g><g fill="#000000" fill-opacity="1"><g transform="translate(856.879552, 378.315044)"><g><path d="M 158.765625 0 L 158.765625 -21.625 C 141.160156 -7.207031 121.238281 0 99 0 C 73.082031 0.238281 50.835938 -8.800781 32.265625 -27.125 C 13.691406 -45.457031 4.28125 -67.703125 4.03125 -93.859375 C 3.789062 -119.773438 12.835938 -142.019531 31.171875 -160.59375 C 49.503906 -179.175781 71.742188 -188.585938 97.890625 -188.828125 C 120.628906 -188.828125 140.796875 -181.613281 158.390625 -167.1875 L 158.390625 -255.921875 L 209.734375 -255.921875 L 210.09375 0 Z M 131.625 -61.59375 C 140.675781 -70.644531 145.203125 -81.644531 145.203125 -94.59375 C 144.710938 -107.789062 140.066406 -118.789062 131.265625 -127.59375 C 121.972656 -136.394531 110.972656 -140.796875 98.265625 -140.796875 C 85.304688 -140.796875 74.304688 -136.273438 65.265625 -127.234375 C 56.222656 -117.210938 51.820312 -106.210938 52.0625 -94.234375 C 52.0625 -81.273438 56.582031 -70.273438 65.625 -61.234375 C 74.675781 -52.191406 85.675781 -47.671875 98.625 -47.671875 C 111.832031 -48.160156 122.832031 -52.800781 131.625 -61.59375 Z M 131.625 -61.59375 "/></g></g></g><g fill="#000000" fill-opacity="1"><g transform="translate(1077.974212, 378.315044)"><g><path d="M 192.859375 -86.171875 C 193.109375 -81.035156 193.109375 -77.976562 192.859375 -77 L 55 -77.359375 C 56.957031 -71.742188 60.5 -66.367188 65.625 -61.234375 C 75.164062 -52.191406 86.164062 -47.671875 98.625 -47.671875 C 111.832031 -48.160156 122.832031 -52.800781 131.625 -61.59375 L 133.09375 -63.0625 L 180.765625 -48.03125 C 170.253906 -31.65625 159.253906 -19.921875 147.765625 -12.828125 C 134.804688 -4.515625 118.550781 -0.238281 99 0 C 73.082031 0.238281 50.835938 -8.800781 32.265625 -27.125 C 13.691406 -45.457031 4.28125 -67.703125 4.03125 -93.859375 C 3.789062 -119.773438 12.835938 -142.019531 31.171875 -160.59375 C 49.503906 -179.175781 71.742188 -188.585938 97.890625 -188.828125 C 123.804688 -189.066406 146.050781 -180.023438 164.625 -161.703125 C 183.207031 -143.367188 192.617188 -121.125 192.859375 -94.96875 Z M 98.265625 -140.796875 C 85.304688 -140.796875 74.304688 -136.273438 65.265625 -127.234375 C 60.617188 -122.097656 57.316406 -116.960938 55.359375 -111.828125 L 141.53125 -111.828125 C 139.570312 -116.960938 136.148438 -122.21875 131.265625 -127.59375 C 121.972656 -136.394531 110.972656 -140.796875 98.265625 -140.796875 Z M 98.265625 -140.796875 "/></g></g></g><g fill="#000000" fill-opacity="1"><g transform="translate(1278.902775, 378.315044)"><g><path d="M 158.765625 0 L 158.765625 -21.625 C 141.160156 -7.207031 121.238281 0 99 0 C 73.082031 0.238281 50.835938 -8.800781 32.265625 -27.125 C 13.691406 -45.457031 4.28125 -67.703125 4.03125 -93.859375 C 3.789062 -119.773438 12.835938 -142.019531 31.171875 -160.59375 C 49.503906 -179.175781 71.742188 -188.585938 97.890625 -188.828125 C 120.628906 -188.828125 140.796875 -181.613281 158.390625 -167.1875 L 158.390625 -255.921875 L 209.734375 -255.921875 L 210.09375 0 Z M 131.625 -61.59375 C 140.675781 -70.644531 145.203125 -81.644531 145.203125 -94.59375 C 144.710938 -107.789062 140.066406 -118.789062 131.265625 -127.59375 C 121.972656 -136.394531 110.972656 -140.796875 98.265625 -140.796875 C 85.304688 -140.796875 74.304688 -136.273438 65.265625 -127.234375 C 56.222656 -117.210938 51.820312 -106.210938 52.0625 -94.234375 C 52.0625 -81.273438 56.582031 -70.273438 65.625 -61.234375 C 74.675781 -52.191406 85.675781 -47.671875 98.625 -47.671875 C 111.832031 -48.160156 122.832031 -52.800781 131.625 -61.59375 Z M 131.625 -61.59375 "/></g></g></g></g></g></svg>